<svg width="520" height="66" viewBox="0 0 520 66" fill="none" xmlns="http://www.w3.org/2000/svg">
<path d="M37.4999 33C37.5039 33.5127 37.348 34.0139 37.054 34.434C36.76 34.854 36.3424 35.172 35.8593 35.3438L25.9468 38.9484L22.3437 48.8594C22.1661 49.3378 21.8463 49.7505 21.4273 50.0418C21.0084 50.3332 20.5102 50.4894 19.9999 50.4894C19.4896 50.4894 18.9915 50.3332 18.5725 50.0418C18.1535 49.7505 17.8337 49.3378 17.6562 48.8594L14.0515 38.9375L4.14053 35.3438C3.66209 35.1662 3.24946 34.8464 2.95807 34.4274C2.66668 34.0085 2.5105 33.5103 2.5105 33C2.5105 32.4897 2.66668 31.9915 2.95807 31.5726C3.24946 31.1536 3.66209 30.8338 4.14053 30.6563L14.0624 27.0516L17.6562 17.1406C17.8337 16.6622 18.1535 16.2496 18.5725 15.9582C18.9915 15.6668 19.4896 15.5106 19.9999 15.5106C20.5102 15.5106 21.0084 15.6668 21.4273 15.9582C21.8463 16.2496 22.1661 16.6622 22.3437 17.1406L25.9483 27.0625L35.8593 30.6563C36.3424 30.828 36.76 31.146 37.054 31.566C37.348 31.9861 37.5039 32.4873 37.4999 33Z" fill="#AD28EB"/>
<path d="M96.816 22.488H77.72V30.328H92.952V37.776H77.72V52H68.088V15.04H96.816V22.488ZM132.368 52H122.456L119.88 43.656H107.224L104.592 52H94.9037L107.896 15.04H119.432L132.368 52ZM109.016 37.104H118.088L113.552 22.152L109.016 37.104ZM161.227 63.368C158.763 63.368 156.598 62.9573 154.731 62.136C152.864 61.3147 151.408 60.12 150.363 58.552C149.318 56.984 148.795 55.0427 148.795 52.728C148.795 51.9813 148.888 51.1973 149.075 50.376C149.299 49.5547 149.635 48.752 150.083 47.968L155.683 46.68C155.31 47.5013 155.03 48.248 154.843 48.92C154.656 49.592 154.563 50.208 154.563 50.768C154.563 52.224 154.862 53.344 155.459 54.128C156.056 54.9493 156.859 55.5093 157.867 55.808C158.875 56.144 160.014 56.312 161.283 56.312C162.888 56.312 164.232 56.144 165.315 55.808C166.435 55.472 167.35 55.0053 168.059 54.408L169.515 61.072C168.544 61.8187 167.294 62.3787 165.763 62.752C164.232 63.1627 162.72 63.368 161.227 63.368ZM151.875 14.48C155.608 14.48 158.819 15.2453 161.507 16.776C164.232 18.2693 166.323 20.4347 167.779 23.272C169.235 26.1093 169.963 29.5253 169.963 33.52C169.963 37.5147 169.235 40.9307 167.779 43.768C166.323 46.6053 164.232 48.7893 161.507 50.32C158.819 51.8133 155.608 52.56 151.875 52.56C148.142 52.56 144.912 51.8133 142.187 50.32C139.462 48.7893 137.371 46.6053 135.915 43.768C134.459 40.9307 133.731 37.5147 133.731 33.52C133.731 29.5253 134.459 26.1093 135.915 23.272C137.371 20.4347 139.462 18.2693 142.187 16.776C144.912 15.2453 148.142 14.48 151.875 14.48ZM151.875 22.04C150.083 22.04 148.571 22.4693 147.339 23.328C146.107 24.1867 145.174 25.4747 144.539 27.192C143.904 28.872 143.587 30.9813 143.587 33.52C143.587 36.0213 143.904 38.1307 144.539 39.848C145.174 41.5653 146.107 42.8533 147.339 43.712C148.571 44.5707 150.083 45 151.875 45C153.667 45 155.16 44.5707 156.355 43.712C157.587 42.8533 158.52 41.5653 159.155 39.848C159.79 38.1307 160.107 36.0213 160.107 33.52C160.107 30.9813 159.79 28.872 159.155 27.192C158.52 25.4747 157.587 24.1867 156.355 23.328C155.16 22.4693 153.667 22.04 151.875 22.04ZM187.676 52.56C184.876 52.56 182.263 52.112 179.836 51.216C177.447 50.2827 175.468 48.9573 173.9 47.24L178.38 41.976C179.313 43.1707 180.545 44.1787 182.076 45C183.644 45.784 185.38 46.176 187.284 46.176C188.441 46.176 189.393 46.008 190.14 45.672C190.887 45.336 191.26 44.8133 191.26 44.104C191.26 43.5813 191.073 43.1707 190.7 42.872C190.327 42.536 189.58 42.256 188.46 42.032L184.54 41.248C181.031 40.5387 178.529 39.4933 177.036 38.112C175.58 36.6933 174.852 34.8453 174.852 32.568C174.852 31.0373 175.319 29.5813 176.252 28.2C177.185 26.7813 178.623 25.6427 180.564 24.784C182.505 23.888 184.988 23.44 188.012 23.44C190.849 23.44 193.351 23.8507 195.516 24.672C197.681 25.4933 199.399 26.688 200.668 28.256L196.132 33.408C195.236 32.288 194.079 31.4107 192.66 30.776C191.241 30.1413 189.823 29.824 188.404 29.824C187.508 29.824 186.743 29.9173 186.108 30.104C185.511 30.2533 185.063 30.4773 184.764 30.776C184.465 31.0747 184.316 31.448 184.316 31.896C184.316 32.3813 184.54 32.8107 184.988 33.184C185.473 33.52 186.351 33.8187 187.62 34.08L192.716 35.088C195.591 35.6107 197.663 36.5627 198.932 37.944C200.201 39.3253 200.836 40.9867 200.836 42.928C200.836 44.7573 200.351 46.4 199.38 47.856C198.409 49.312 196.953 50.4693 195.012 51.328C193.071 52.1493 190.625 52.56 187.676 52.56Z" fill="#301534"/>
</svg>
